<svg width="1032" height="376" viewBox="0 0 1032 376" fill="none" xmlns="http://www.w3.org/2000/svg">
<path d="M376.962 187.668C376.953 184.964 376.89 182.276 376.769 179.6V27.0602L334.598 69.2312C300.084 26.9839 247.578 0 188.767 0C127.564 0 73.1916 29.2134 38.8206 74.4549L107.944 144.305C114.718 131.777 124.342 121.017 135.945 112.89C148.013 103.472 165.112 95.7722 188.765 95.7722C191.622 95.7722 193.828 96.1061 195.448 96.7352C224.754 99.0483 250.157 115.222 265.115 138.696L216.186 187.625C278.16 187.382 348.173 187.239 376.956 187.657" fill="#1C3AA9"/>
<path d="M187.668 0.00732422C184.964 0.0162996 182.276 0.0786785 179.6 0.199846H27.0602L69.2312 42.3709C26.9839 76.8856 0 129.391 0 188.202C0 249.405 29.2138 303.778 74.4549 338.149L144.305 269.025C131.777 262.251 121.017 252.628 112.89 241.024C103.473 228.956 95.7722 211.858 95.7722 188.204C95.7722 185.347 96.1061 183.141 96.7352 181.521C99.0482 152.215 115.222 126.812 138.696 111.854L187.625 160.783C187.382 98.8087 187.239 28.7966 187.657 0.0127082" fill="#4285F4"/>
<path d="M0.00683594 188.197C0.0158113 190.9 0.0781902 193.589 0.199357 196.264V348.805L42.3704 306.634C76.8851 348.881 129.391 375.865 188.202 375.865C249.404 375.865 303.777 346.651 338.148 301.41L269.025 231.559C262.25 244.088 252.627 254.848 241.024 262.975C228.956 272.393 211.857 280.093 188.204 280.093C185.346 280.093 183.141 279.759 181.52 279.13C152.214 276.817 126.811 260.643 111.854 237.169L160.783 188.24C98.8082 188.483 28.7961 188.625 0.0122285 188.208" fill="#ABABAB"/>
<path d="M553.086 260.001C548.141 260.001 543.707 260.933 539.785 262.795C535.863 264.616 532.537 267.219 529.809 270.606C527.123 273.993 525.055 278.099 523.606 282.925C522.199 287.709 521.495 293.064 521.495 298.991V316.072C521.495 322.041 522.199 327.418 523.606 332.202C525.055 336.986 527.101 341.071 529.745 344.458C532.388 347.845 535.585 350.448 539.337 352.268C543.088 354.089 547.309 354.999 551.999 354.999C556.816 354.999 561.037 354.3 564.661 352.903C568.327 351.506 571.397 349.495 573.87 346.871C576.342 344.204 578.239 340.987 579.561 337.219C580.925 333.451 581.735 329.175 581.991 324.391H570.16C569.862 328.074 569.35 331.228 568.626 333.853C567.901 336.435 566.835 338.573 565.428 340.266C564.064 341.918 562.273 343.145 560.056 343.95C557.882 344.712 555.196 345.093 551.999 345.093C548.588 345.093 545.689 344.352 543.302 342.87C540.914 341.346 538.975 339.272 537.483 336.647C536.033 334.022 534.967 330.953 534.285 327.439C533.646 323.925 533.326 320.136 533.326 316.072V298.863C533.326 294.503 533.71 290.545 534.477 286.988C535.287 283.432 536.502 280.406 538.122 277.908C539.742 275.41 541.788 273.484 544.261 272.129C546.734 270.732 549.676 270.034 553.086 270.034C555.943 270.034 558.394 270.457 560.44 271.304C562.486 272.108 564.192 273.378 565.556 275.114C566.92 276.807 567.965 278.966 568.689 281.591C569.414 284.216 569.904 287.348 570.16 290.989H581.991C581.778 285.993 580.989 281.57 579.625 277.717C578.261 273.864 576.363 270.626 573.933 268.001C571.503 265.376 568.54 263.387 565.045 262.032C561.592 260.677 557.606 260.001 553.086 260.001ZM841.881 260.001C836.936 260.001 832.502 260.933 828.58 262.795C824.657 264.616 821.332 267.219 818.604 270.606C815.918 273.993 813.85 278.099 812.4 282.925C810.993 287.709 810.29 293.064 810.29 298.991V316.072C810.29 322.041 810.993 327.418 812.4 332.202C813.85 336.986 815.896 341.071 818.54 344.458C821.183 347.844 824.38 350.448 828.132 352.268C831.883 354.089 836.104 354.999 840.794 354.999C845.611 354.999 849.832 354.3 853.456 352.903C857.122 351.506 860.191 349.495 862.664 346.871C865.137 344.204 867.034 340.987 868.356 337.219C869.72 333.451 870.53 329.175 870.786 324.391H858.956C858.657 328.074 858.146 331.228 857.421 333.853C856.696 336.435 855.63 338.573 854.223 340.266C852.859 341.918 851.069 343.145 848.852 343.95C846.677 344.712 843.991 345.093 840.794 345.093C837.383 345.093 834.484 344.352 832.097 342.87C829.71 341.346 827.77 339.272 826.278 336.647C824.828 334.022 823.763 330.953 823.08 327.439C822.441 323.925 822.121 320.136 822.121 316.072V298.863C822.121 294.503 822.505 290.545 823.272 286.988C824.082 283.432 825.297 280.406 826.917 277.908C828.537 275.41 830.584 273.484 833.056 272.129C835.529 270.732 838.471 270.034 841.881 270.034C844.737 270.034 847.189 270.457 849.235 271.304C851.281 272.108 852.987 273.378 854.351 275.114C855.715 276.807 856.76 278.966 857.484 281.591C858.209 284.216 858.699 287.348 858.955 290.989H870.785C870.572 285.993 869.784 281.57 868.419 277.717C867.055 273.864 865.158 270.626 862.728 268.001C860.298 265.376 857.335 263.387 853.839 262.032C850.386 260.677 846.4 260.001 841.881 260.001ZM620.492 261.271L590.5 353.728H602.523L609.749 329.598H641.212L648.566 353.728H660.588L630.532 261.271H620.492ZM673.248 261.271V353.728H684.95V317.532H702.92C707.396 317.532 711.361 316.919 714.815 315.691C718.268 314.421 721.167 312.601 723.512 310.23C725.899 307.859 727.69 304.938 728.883 301.467C730.119 297.953 730.738 293.974 730.738 289.528C730.738 285.422 730.119 281.654 728.883 278.225C727.689 274.753 725.92 271.769 723.576 269.271C721.231 266.731 718.311 264.762 714.815 263.365C711.361 261.968 707.397 261.27 702.92 261.27L673.248 261.271ZM739.69 261.271V271.304H764.119V353.728H775.821V271.304H800.313V261.271H739.69ZM886.581 261.271V353.728H898.284V310.992H935.757V353.728H947.524V261.271H935.757V301.023H898.284V261.271H886.581ZM991.904 261.271L961.912 353.728H973.935L981.161 329.598H1012.62L1019.98 353.728H1032L1001.94 261.271H991.904ZM684.95 271.304H702.919C705.775 271.304 708.205 271.812 710.209 272.828C712.255 273.844 713.918 275.199 715.197 276.892C716.519 278.586 717.478 280.554 718.075 282.798C718.714 284.999 719.034 287.285 719.034 289.656C719.034 292.281 718.714 294.694 718.075 296.895C717.478 299.054 716.519 300.938 715.197 302.547C713.918 304.113 712.256 305.341 710.209 306.23C708.205 307.119 705.775 307.564 702.919 307.564H684.95V271.304ZM625.479 277.528L638.205 319.566H612.817L625.479 277.528ZM996.891 277.528L1009.62 319.566H984.229L996.891 277.528ZM446.045 283.751C443.103 283.751 440.566 284.492 438.435 285.973C436.346 287.455 434.598 289.466 433.191 292.006L432.999 285.021H422V353.729H433.319V304.577C434.385 301.656 435.898 299.349 437.859 297.656C439.863 295.962 442.4 295.116 445.469 295.116C446.45 295.116 447.324 295.159 448.091 295.242C448.859 295.286 449.69 295.391 450.585 295.56L450.521 284.638C450.351 284.553 450.074 284.468 449.69 284.383C449.349 284.256 448.965 284.15 448.539 284.066C448.113 283.981 447.665 283.917 447.196 283.875C446.77 283.791 446.386 283.751 446.045 283.751ZM484.094 283.751C480.811 283.751 477.635 284.322 474.566 285.465C471.496 286.608 468.768 288.492 466.381 291.117C464.036 293.699 462.139 297.086 460.689 301.277C459.24 305.426 458.515 310.527 458.515 316.581V324.329C458.515 329.578 459.133 334.129 460.369 337.981C461.606 341.833 463.375 345.03 465.677 347.57C468.022 350.068 470.857 351.931 474.182 353.158C477.508 354.386 481.238 355 485.373 355C488.358 355 491.022 354.703 493.367 354.111C495.754 353.518 497.865 352.756 499.698 351.825C501.531 350.851 503.109 349.75 504.43 348.523C505.752 347.295 506.881 346.025 507.819 344.713L501.936 337.601C500.998 338.743 499.996 339.802 498.931 340.776C497.865 341.707 496.692 342.533 495.413 343.252C494.134 343.93 492.728 344.459 491.193 344.84C489.658 345.22 487.931 345.411 486.013 345.411C480.769 345.411 476.74 343.739 473.927 340.395C471.156 337.05 469.77 331.695 469.77 324.329V322.741H508.395V316.2C508.395 310.951 507.947 306.315 507.052 302.293C506.157 298.272 504.729 294.885 502.768 292.133C500.807 289.382 498.291 287.307 495.221 285.91C492.152 284.471 488.443 283.751 484.094 283.751ZM484.094 293.403C486.567 293.403 488.613 293.848 490.233 294.737C491.853 295.626 493.132 296.875 494.07 298.483C495.051 300.092 495.754 302.018 496.181 304.262C496.649 306.463 496.948 308.898 497.076 311.564V313.088H469.834C470.004 309.236 470.473 306.04 471.241 303.5C472.008 300.959 473.01 298.949 474.246 297.467C475.525 295.943 476.996 294.885 478.659 294.292C480.321 293.699 482.133 293.403 484.094 293.403Z" fill="#666666"/>
<path d="M681.161 129.642C681.161 158.236 658.793 179.306 631.344 179.306C603.894 179.306 581.527 158.236 581.527 129.642C581.527 100.847 603.894 79.978 631.344 79.978C658.793 79.978 681.161 100.847 681.161 129.642ZM659.353 129.642C659.353 111.774 646.39 99.548 631.344 99.548C616.298 99.548 603.334 111.774 603.334 129.642C603.334 147.331 616.298 159.736 631.344 159.736C646.39 159.736 659.353 147.309 659.353 129.642Z" fill="#EA4335"/>
<path d="M788.632 129.642C788.632 158.236 766.264 179.306 738.814 179.306C711.365 179.306 688.997 158.236 688.997 129.642C688.997 100.869 711.365 79.978 738.814 79.978C766.264 79.978 788.632 100.847 788.632 129.642ZM766.824 129.642C766.824 111.774 753.86 99.548 738.814 99.548C723.769 99.548 710.805 111.774 710.805 129.642C710.805 147.331 723.769 159.736 738.814 159.736C753.86 159.736 766.824 147.309 766.824 129.642Z" fill="#FBBC05"/>
<path d="M891.624 82.9785V172.141C891.624 208.818 869.996 223.797 844.427 223.797C820.358 223.797 805.872 207.698 800.408 194.532L819.395 186.628C822.776 194.711 831.06 204.25 844.404 204.25C860.771 204.25 870.914 194.151 870.914 175.141V167.998H870.152C865.271 174.021 855.868 179.283 844.001 179.283C819.171 179.283 796.423 157.653 796.423 129.821C796.423 101.787 819.171 79.978 844.001 79.978C855.845 79.978 865.249 85.24 870.152 91.0841H870.914V83.0009H891.624V82.9785ZM872.459 129.821C872.459 112.333 860.794 99.548 845.949 99.548C830.903 99.548 818.298 112.333 818.298 129.821C818.298 147.13 830.903 159.736 845.949 159.736C860.794 159.736 872.459 147.13 872.459 129.821Z" fill="#4285F4"/>
<path d="M925.768 30.7173V176.261H904.498V30.7173H925.768Z" fill="#34A853"/>
<path d="M1008.66 145.988L1025.58 157.273C1020.12 165.356 1006.95 179.284 984.206 179.284C955.995 179.284 934.926 157.475 934.926 129.62C934.926 100.086 956.174 79.9561 981.765 79.9561C1007.54 79.9561 1020.14 100.466 1024.26 111.55L1026.52 117.193L960.137 144.689C965.219 154.653 973.123 159.736 984.206 159.736C995.311 159.736 1003.01 154.273 1008.66 145.988ZM956.554 128.12L1000.93 109.692C998.49 103.489 991.146 99.1678 982.504 99.1678C971.421 99.1678 955.995 108.953 956.554 128.12Z" fill="#EA4335"/>
<path d="M501.013 116.722V95.652H572.011C572.705 99.3242 573.063 103.668 573.063 108.37C573.063 124.179 568.742 143.726 554.816 157.654C541.27 171.76 523.963 179.284 501.036 179.284C458.54 179.284 422.806 144.667 422.806 102.168C422.806 59.6692 458.54 25.0522 501.036 25.0522C524.545 25.0522 541.292 34.2775 553.876 46.3016L539.009 61.1694C529.986 52.7055 517.761 46.1225 501.013 46.1225C469.981 46.1225 445.711 71.1335 445.711 102.168C445.711 133.202 469.981 158.213 501.013 158.213C521.142 158.213 532.605 150.13 539.949 142.786C545.905 136.83 549.823 128.321 551.368 116.7L501.013 116.722Z" fill="#4285F4"/>
</svg>
