<svg width="195" height="58" viewBox="0 0 195 58" fill="none" xmlns="http://www.w3.org/2000/svg">
<path fill-rule="evenodd" clip-rule="evenodd" d="M39.8788 27.5077H41.0788C41.2788 27.1077 41.2788 26.3077 41.0788 25.4077C40.8788 24.1077 40.4789 23.4077 39.7789 23.4077C38.9789 23.6077 38.9789 24.5077 39.2789 25.8077C39.3789 26.5077 39.6788 27.1077 39.9788 27.5077H39.8788ZM33.5789 28.5077C34.0789 28.8077 34.3788 28.9077 34.5788 28.8077L34.4788 28.3077C34.1788 27.9077 33.6789 27.5077 33.0789 27.3077C32.4796 27.0514 31.8245 26.9537 31.1765 27.0237C30.5286 27.0938 29.9095 27.3293 29.3789 27.7077C29.0789 27.9077 28.6789 28.3077 28.7789 28.5077L28.9789 28.6077C29.2789 28.6077 30.2789 28.2077 31.4789 28.1077C32.2789 28.1077 32.9789 28.3077 33.4789 28.5077H33.5789ZM32.4789 29.2077C31.7789 29.2077 31.4789 29.5077 31.1789 29.7077L30.7789 30.2077V30.4077H30.9789L31.4789 30.3077C32.4789 29.9077 33.0789 30.0077 33.6789 30.0077H34.2789V29.8077C34.1789 29.5077 33.3789 29.0077 32.4789 29.2077ZM37.7789 31.4077C38.2789 31.6077 38.7788 31.6077 38.9788 31.2077C39.0788 30.9077 38.8788 30.4077 38.3788 30.2077C37.9788 29.9077 37.3789 30.0077 37.2789 30.4077C37.0789 30.7077 37.2789 31.2077 37.7789 31.4077ZM40.7789 28.7077C40.4789 28.7077 40.1788 29.2077 40.0788 29.7077C40.0788 30.2077 40.3789 30.7077 40.7789 30.7077C41.1789 30.7077 41.4788 30.2077 41.4788 29.7077C41.4788 29.2077 41.1788 28.7077 40.8788 28.7077H40.7789ZM14.6789 38.2077C14.4789 38.2077 14.3789 38.3077 14.2789 38.2077C14.1547 38.2321 14.0265 38.2267 13.9048 38.1919C13.7831 38.1571 13.6714 38.094 13.5789 38.0077V36.8077L13.7789 36.6077C14.0789 35.9077 14.5789 34.8077 13.9789 33.6077C13.7856 33.2284 13.5021 32.9024 13.1534 32.6583C12.8047 32.4142 12.4014 32.2595 11.9789 32.2077C11.1789 32.1077 10.2789 32.4077 9.77885 33.0077C8.87885 34.0077 8.77885 35.2077 8.97885 35.7077L9.17885 35.9077C9.27885 35.9077 9.57885 35.8077 9.67885 35.4077C9.67885 35.1077 9.87885 34.8077 10.0789 34.4077C10.2789 34.1077 10.5789 33.9077 11.0789 33.8077C11.4789 33.8077 11.8789 33.8077 12.1789 34.0077C12.7789 34.4077 12.9789 35.2077 12.7789 35.9077C12.6789 36.2077 12.3789 36.9077 12.4789 37.5077C12.4789 38.6077 13.2789 39.1077 13.8789 39.1077C14.4789 39.1077 14.8789 38.8077 15.0789 38.6077V38.3077C14.9789 38.2077 14.7789 38.3077 14.6789 38.3077V38.2077ZM50.6788 40.0077C50.1788 42.3077 49.1788 44.3077 47.4788 46.0077C46.4788 47.2077 45.1789 48.2077 43.7789 48.9077L41.3788 49.9077C34.9788 52.0077 28.3789 49.7077 26.2789 44.7077C25.5535 42.9333 25.3377 40.9918 25.6557 39.1014C25.9737 37.2111 26.8129 35.447 28.0789 34.0077L28.3789 33.4077L28.1789 32.9077C27.2789 31.6077 24.3789 29.6077 24.9789 25.5077C25.3789 22.7077 27.9789 20.6077 30.2789 20.7077H30.8789L33.5789 21.0077C34.9789 21.0077 36.2789 20.9077 37.7789 19.6077C38.2789 19.2077 38.6788 18.8077 39.3788 18.7077H39.9788C40.2788 18.7077 40.6788 18.7077 40.9788 19.0077C42.1788 19.8077 42.3788 21.7077 42.3788 23.1077L42.5788 26.4077C42.5788 27.7077 42.9788 27.9077 43.5788 28.1077L44.8788 28.5077C46.0563 28.7257 47.158 29.2422 48.0788 30.0077C48.3788 30.4077 48.5788 30.7077 48.5788 31.1077C48.7788 32.5077 47.5789 34.1077 44.2789 35.7077C40.8275 37.242 37.0392 37.8619 33.2789 37.5077L32.2789 37.3077C29.7789 37.0077 28.4789 40.2077 29.8789 42.3077C30.8789 43.7077 33.3788 44.6077 35.8788 44.6077C41.7788 44.6077 46.1788 42.1077 47.8788 39.9077L47.9788 39.7077C47.9788 39.5077 48.0788 39.6077 47.9788 39.7077C46.5788 40.5077 40.4788 44.3077 33.9788 43.1077C33.9788 43.1077 33.2789 43.1077 32.5789 42.7077C31.9789 42.5077 30.7789 42.0077 30.5789 40.7077C35.8789 42.3077 39.1788 40.8077 39.1788 40.8077V40.7077L39.0788 40.5077C39.0788 40.5077 34.7789 41.2077 30.7789 39.7077C31.1789 38.2077 32.3788 38.7077 34.0788 38.9077C37.2788 39.1077 40.1789 38.6077 42.2789 38.0077C44.0789 37.5077 46.4788 36.4077 48.3788 35.0077C48.9788 36.3077 49.2789 37.9077 49.2789 37.9077C49.2789 37.9077 49.7788 37.8077 50.1788 38.0077C50.4788 38.3077 50.7788 38.8077 50.5788 40.0077H50.6788ZM20.8789 17.2077C22.8789 14.8077 25.3789 12.8077 27.5789 11.7077H27.6789L27.0789 13.3077C27.0789 13.4077 27.0789 13.5077 27.1789 13.4077C28.5789 12.4077 30.9789 11.4077 33.0789 11.4077C33.0789 11.4077 33.1789 11.4077 33.0789 11.5077C32.7352 11.7989 32.4324 12.1353 32.1789 12.5077H32.2789C33.7789 12.5077 35.8789 13.1077 37.2789 13.9077C37.2789 13.9077 37.2788 14.1077 37.0788 14.1077C34.3372 13.4801 31.4937 13.4408 28.7358 13.9924C25.9779 14.544 23.3682 15.6739 21.0789 17.3077C20.8789 17.3077 20.7789 17.3077 20.8789 17.2077ZM10.4789 28.2077C8.69042 28.5643 7.11177 29.6048 6.07885 31.1077C5.38178 30.5787 4.74466 29.9751 4.17885 29.3077C2.67885 26.3077 5.87885 20.5077 8.17885 17.2077C13.8789 9.20766 22.6789 3.00767 26.8789 4.10767C27.4789 4.30767 29.6789 6.80767 29.6789 6.80767C29.6789 6.80767 25.6789 9.10766 21.8789 12.3077C16.7057 16.494 12.7943 22.0324 10.5789 28.3077L10.4789 28.2077ZM13.4789 41.9077H12.6789C9.97885 41.9077 6.97885 39.4077 6.67885 36.5077C6.37885 33.3077 7.97885 30.8077 10.9789 30.2077C11.3734 30.1261 11.7763 30.0925 12.1789 30.1077C13.7789 30.1077 16.1789 31.4077 16.7789 35.1077C17.2789 38.1077 16.4789 41.4077 13.4789 41.9077ZM50.4788 36.2077L50.1788 34.9077L49.6788 33.7077C50.2881 32.9535 50.5861 31.9949 50.5117 31.0282C50.4374 30.0615 49.9963 29.1598 49.2789 28.5077C48.1635 27.5298 46.8238 26.8428 45.3788 26.5077L44.3788 26.3077V22.9077C44.3788 22.2077 44.2788 21.1077 43.8788 19.9077C43.5378 18.5537 42.8483 17.3126 41.8788 16.3077C44.3788 13.7077 45.8788 10.8077 45.8788 8.30767C45.8788 3.70767 40.0789 2.30767 32.9789 5.30767L31.4789 5.80767L28.8789 3.10767C20.7789 -3.89233 -4.52115 24.3077 3.57885 31.1077L5.27885 32.7077C4.83868 33.9923 4.70178 35.3613 4.87885 36.7077C5.11303 38.6844 6.07571 40.5028 7.57885 41.8077C9.02776 43.1478 10.9068 43.9278 12.8789 44.0077C14.5197 47.6092 17.1681 50.6587 20.5041 52.7881C23.8401 54.9175 27.7212 56.0357 31.6789 56.0077C40.6789 56.3077 48.3788 52.0077 51.4788 44.3077C51.6788 43.8077 52.5788 41.3077 52.5788 39.3077C52.5788 37.1077 51.3788 36.2077 50.5788 36.2077H50.4788ZM185.879 33.9077C184.679 33.9077 183.679 32.3077 183.679 30.1077C183.679 27.9077 184.679 26.2077 185.879 26.2077C187.379 26.2077 187.979 27.6077 187.979 30.1077C187.979 32.6077 187.379 33.9077 185.979 33.9077H185.879ZM182.779 24.9077C182.379 25.7077 182.379 25.9077 182.179 25.9077C181.779 25.9077 182.079 25.3077 182.179 24.6077C182.579 23.1077 182.379 22.0077 182.379 22.0077H178.379V41.7077H183.779V35.2077C184.126 35.8927 184.655 36.4694 185.307 36.8749C185.96 37.2804 186.711 37.4993 187.479 37.5077C191.379 37.5077 193.279 34.1077 193.279 29.5077C193.279 24.4077 190.979 21.6077 187.379 21.6077C184.579 21.6077 183.379 23.7077 182.779 24.9077ZM167.179 24.7077C166.879 25.4077 166.879 25.9077 166.579 25.9077C166.279 25.9077 166.479 25.3077 166.179 24.4077C165.779 23.0077 164.779 21.4077 162.279 21.4077C159.779 21.4077 158.679 23.7077 158.179 24.9077C157.779 25.7077 157.779 25.9077 157.479 25.9077C157.179 25.9077 157.479 25.3077 157.679 24.5077C157.979 23.0077 157.679 21.8077 157.679 21.8077H153.679V37.3077H159.179V29.6077C159.179 28.1077 159.779 26.1077 160.879 26.1077C162.079 26.1077 162.379 27.1077 162.379 28.9077V37.3077H167.879V29.6077C167.879 28.2077 168.379 26.1077 169.579 26.1077C170.779 26.1077 170.979 27.5077 170.979 28.9077V37.3077H176.379V28.2077C176.379 24.2077 174.979 21.5077 171.379 21.5077C168.979 21.5077 167.779 23.5077 167.179 24.7077ZM146.379 37.3077H151.879V21.9077C151.879 21.9077 150.879 22.4077 149.079 22.4077C147.279 22.4077 146.379 21.9077 146.379 21.9077V37.3077ZM149.079 17.0077C147.279 17.0077 145.679 18.0077 145.679 19.3077C145.679 20.5077 147.279 21.5077 149.079 21.5077C150.979 21.5077 152.479 20.5077 152.479 19.3077C152.479 18.0077 150.979 17.0077 149.079 17.0077ZM134.879 25.0077C134.679 25.6077 134.579 26.0077 134.379 26.0077C133.979 26.0077 134.279 25.3077 134.379 24.9077C134.679 24.1077 135.179 22.0077 135.179 19.5077C135.179 17.8077 134.979 17.2077 134.979 17.2077H130.279V37.2077H135.679V29.6077C135.679 28.3077 136.179 26.2077 137.679 26.2077C138.679 26.2077 139.079 27.0077 139.079 28.8077V37.3077H144.579V29.0077C144.579 25.0077 143.979 21.4077 139.579 21.4077C136.379 21.4077 135.179 24.4077 134.979 25.0077H134.879ZM119.879 29.5077C119.879 28.2077 121.079 26.9077 123.479 26.9077C125.249 26.9562 126.974 27.4738 128.479 28.4077V23.1077C128.479 23.1077 126.879 21.5077 122.879 21.5077C118.779 21.5077 115.279 24.0077 115.279 29.3077C115.279 34.6077 118.379 37.6077 122.879 37.6077C126.379 37.6077 128.479 35.6077 128.479 35.6077V30.6077C127.779 30.9077 125.979 32.2077 123.479 32.2077C120.779 32.2077 119.879 31.0077 119.879 29.5077ZM108.379 37.3077H113.779V17.2077H108.379V37.2077V37.3077ZM101.079 37.3077H106.579V21.9077C106.579 21.9077 105.579 22.4077 103.779 22.4077C101.979 22.4077 101.079 21.9077 101.079 21.9077V37.3077ZM103.879 17.0077C101.879 17.0077 100.479 18.0077 100.479 19.3077C100.479 20.5077 101.979 21.5077 103.779 21.5077C105.679 21.5077 107.179 20.5077 107.179 19.3077C107.179 18.0077 105.679 17.0077 103.779 17.0077H103.879ZM91.3789 33.6077C90.0789 33.9077 89.3789 33.6077 89.3789 32.6077C89.3789 31.4077 90.5789 30.9077 92.3789 30.9077L93.8789 31.0077C93.8789 31.5077 92.7789 33.3077 91.3789 33.6077ZM92.6789 21.5077C88.4789 21.5077 85.4789 23.1077 85.4789 23.1077V27.7077C85.4789 27.7077 88.7789 25.7077 91.4789 25.7077C93.6789 25.7077 93.8789 26.9077 93.7789 27.9077C93.7789 27.9077 93.1789 27.7077 91.2789 27.7077C86.8789 27.7077 84.5788 29.8077 84.5788 33.1077C84.5788 36.3077 87.0789 37.6077 89.2789 37.6077C92.2789 37.6077 93.7789 35.5077 94.1789 34.4077C94.4789 33.7077 94.4789 33.3077 94.7789 33.3077C95.0789 33.3077 94.9789 33.6077 94.9789 34.3077C94.9789 35.5077 94.9789 36.5077 95.1789 37.3077H99.2789V29.7077C99.2789 24.9077 97.6789 21.5077 92.6789 21.5077ZM74.1789 24.7077C73.7789 25.4077 73.7789 25.9077 73.4789 25.9077C73.1789 25.9077 73.4788 25.4077 73.0788 24.4077C72.8902 23.5263 72.3944 22.7408 71.68 22.1912C70.9656 21.6417 70.0791 21.364 69.1789 21.4077C66.6789 21.4077 65.5788 23.7077 65.0788 24.9077C64.6788 25.7077 64.6788 25.9077 64.4788 25.9077C64.0788 25.9077 64.3788 25.3077 64.4788 24.5077C64.8788 23.0077 64.5788 21.8077 64.5788 21.8077H60.5788V37.3077H66.0788V29.6077C66.0788 28.1077 66.6789 26.1077 67.7789 26.1077C68.9789 26.1077 69.2789 27.1077 69.2789 28.9077V37.3077H74.7789V29.6077C74.7789 28.2077 75.2789 26.1077 76.4789 26.1077C77.6789 26.1077 77.8789 27.5077 77.8789 29.0077V37.4077H83.2789V28.3077C83.2789 24.3077 81.8789 21.6077 78.2789 21.6077C75.8789 21.6077 74.6789 23.6077 74.1789 24.8077V24.7077Z" fill="#241C15"/>
</svg>
