<svg id="integration" width="21" height="20" viewBox="0 0 21 20" fill="none" xmlns="http://www.w3.org/2000/svg">
<g clip-path="url(#clip0_118_4749)">
<path d="M19.0492 8.27989V8.96299H19.6435L19.7877 8.38667C19.5451 8.32604 19.2977 8.29041 19.0492 8.27989Z" fill="currentColor"/>
<path d="M11.0822 0.245868L8.90927 2.5888C8.83695 2.83245 8.79049 3.08416 8.77146 3.33994L11.0822 0.245868Z" fill="currentColor"/>
<path fill-rule="evenodd" clip-rule="evenodd" d="M11.0822 0.245868C11.722 -0.000753418 12.419 -0.0633908 13.093 0.0649614C13.767 0.193319 14.3913 0.507628 14.8934 0.972479L14.8943 0.973263C15.2564 1.3098 15.5455 1.71616 15.7438 2.16771C15.9418 2.61889 16.0447 3.10549 16.0461 3.59771L16.0461 3.59624L15.4518 3.60039L16.0461 3.59897L16.0461 3.59771C16.0464 3.65151 16.0455 3.70528 16.0434 3.75897H19.2625C19.721 3.75897 20.1622 3.93878 20.4885 4.26111C20.8152 4.58367 21 5.02269 21 5.482V9.49924C20.9998 9.66596 20.9565 9.83014 20.8746 9.97487C20.7931 10.1188 20.6765 10.239 20.5363 10.325C20.3975 10.4107 20.2395 10.4599 20.077 10.4683C19.9156 10.4767 19.7544 10.4447 19.6083 10.3749C19.3794 10.2686 19.1289 10.2141 18.8753 10.2156C18.6206 10.2172 18.3698 10.2753 18.1415 10.3853C17.9132 10.4953 17.7135 10.6542 17.5567 10.8499C17.4 11.0455 17.2902 11.2729 17.2349 11.5152C17.1796 11.7574 17.1802 12.0087 17.2365 12.2507C17.2928 12.4927 17.4036 12.7197 17.5612 12.9146C17.7188 13.1097 17.9192 13.2678 18.148 13.3768C18.3767 13.4858 18.6276 13.5428 18.8821 13.5434C19.1336 13.5433 19.3819 13.4887 19.6092 13.3837C19.755 13.3142 19.9159 13.2823 20.077 13.2906C20.2395 13.2991 20.3976 13.3482 20.5364 13.434C20.6765 13.52 20.7932 13.6402 20.8746 13.7841C20.9565 13.9288 20.9998 14.0923 21 14.2591V18.277C21 18.7363 20.8152 19.1753 20.4885 19.4979C20.1622 19.8202 19.721 20 19.2625 20H5.54394C5.08541 20 4.64424 19.8202 4.31785 19.4979C3.99122 19.1753 3.80639 18.7363 3.80639 18.277V15.4796C3.66313 15.4858 3.51942 15.4836 3.37601 15.4731C2.69171 15.4234 2.03499 15.1834 1.48183 14.78C0.928494 14.3766 0.50116 13.8259 0.250253 13.1911C-0.000677913 12.5563 -0.0645921 11.8639 0.0661587 11.1943C0.196902 10.5248 0.516749 9.90633 0.987719 9.41022L0.988515 9.40938C1.3294 9.05169 1.7402 8.76686 2.19554 8.57194C2.65046 8.37719 3.14054 8.27618 3.63589 8.27485L4.69655 7.13119L5.75721 5.98753V9.49924C5.75702 9.66596 5.71367 9.83014 5.63178 9.97487C5.55036 10.1187 5.43375 10.239 5.29355 10.3249C5.15477 10.4107 4.9967 10.4599 4.8342 10.4683C4.67309 10.4767 4.51223 10.4448 4.3664 10.3753C4.13908 10.2703 3.89084 10.2157 3.63929 10.2156C3.38477 10.2162 3.13389 10.2732 2.90522 10.3822C2.67643 10.4912 2.47601 10.6493 2.31841 10.8443C2.16085 11.0393 2.05005 11.2663 1.99371 11.5083C1.93739 11.7503 1.93684 12.0016 1.99213 12.2438C2.04741 12.486 2.15722 12.7135 2.31394 12.9091C2.47068 13.1047 2.67041 13.2637 2.89871 13.3737C3.12704 13.4837 3.37784 13.5418 3.63251 13.5433C3.88335 13.5449 4.13115 13.4916 4.35807 13.3875C4.49207 13.3197 4.6407 13.286 4.79061 13.2894C4.96801 13.2906 5.14213 13.3404 5.29358 13.4341C5.43377 13.52 5.55037 13.6402 5.63178 13.7841C5.71368 13.9288 5.75702 14.0924 5.75721 14.2591L5.75721 18.0592H19.0492V15.4811C18.9924 15.4835 18.9356 15.4845 18.8787 15.4841L18.8773 15.4841L18.8814 14.8901L18.88 15.4841L18.8787 15.4841C18.3833 15.4828 17.8933 15.3818 17.4383 15.187C16.9834 14.9923 16.5729 14.7078 16.2322 14.3505L16.233 14.3514L16.6616 13.9399L16.2313 14.3496L16.2322 14.3505C15.8875 13.9916 15.6218 13.5653 15.4525 13.0986C15.283 12.6317 15.2139 12.1349 15.2495 11.6398C15.2867 11.1111 15.4409 10.5973 15.7009 10.1346C15.9609 9.67169 16.3204 9.27145 16.7534 8.96173C17.1863 8.65202 17.6824 8.44028 18.2065 8.34102C18.4849 8.28831 18.7677 8.26798 19.0492 8.27989V8.96299H19.6435L19.7877 8.38667C19.5451 8.32604 19.2977 8.29041 19.0492 8.27989V5.69974H19.2625C19.2082 5.69974 19.1547 5.67852 19.1142 5.63849C19.0734 5.59822 19.0492 5.54207 19.0492 5.482V5.69974H14.8135C14.6486 5.69956 14.4854 5.65778 14.3407 5.57792C14.1968 5.49848 14.0748 5.38375 13.9869 5.24388L13.9884 5.24633L14.4896 4.92692L13.9854 5.24153L13.9869 5.24388C13.8991 5.10536 13.8481 4.94648 13.8394 4.78222C13.8307 4.61933 13.8638 4.45723 13.9353 4.31104L13.9338 4.31414L14.4705 4.56942L13.9384 4.30471L13.9353 4.31104C14.0407 4.08852 14.0952 3.84621 14.0953 3.60112C14.0947 3.35314 14.0378 3.10818 13.9283 2.88427C13.8188 2.66018 13.6594 2.46263 13.4614 2.30656C13.2634 2.15046 13.0318 2.03995 12.7838 1.98364C12.5357 1.92733 12.278 1.92679 12.0297 1.98205C11.7814 2.03731 11.5494 2.14686 11.3506 2.30213C11.1519 2.45737 10.9917 2.65427 10.8812 2.8779C10.7707 3.1015 10.7127 3.34638 10.7112 3.59452C10.7096 3.84158 10.764 4.08608 10.8707 4.3102C10.9424 4.4566 10.9757 4.61902 10.967 4.78222C10.9583 4.94652 10.9073 5.10541 10.8195 5.24394C10.7316 5.38378 10.6096 5.49849 10.4657 5.57792C10.321 5.65778 10.1585 5.69956 9.99358 5.69974L6.02411 5.69974L8.21265 3.33994H8.77146L11.0822 0.245868ZM8.90927 2.5888L11.0822 0.245868C10.4423 0.492509 9.88522 0.913382 9.47594 1.46079C9.22054 1.8024 9.02929 2.1845 8.90927 2.5888Z" fill="currentColor"/>
<path d="M19.0492 5.69974H19.2625C19.2082 5.69974 19.1547 5.67852 19.1142 5.63849C19.0734 5.59822 19.0492 5.54207 19.0492 5.482V5.69974Z" fill="currentColor"/>
<path d="M3.63589 5.32013V8.27485L4.69655 7.13119L5.75721 5.98753V5.69974H6.02411L8.21265 3.33994H5.61702C4.52287 3.33994 3.63589 4.2265 3.63589 5.32013Z" fill="currentColor"/>
</g>
<defs>
<clipPath id="clip0_118_4749">
<rect width="21" height="20" fill="white"/>
</clipPath>
</defs>
</svg>
